<?xml version="1.0" encoding="UTF-8" standalone="no"?>
<!-- Created with Inkscape (http://www.inkscape.org/) -->

<svg
   version="1.1"
   id="svg1"
   width="2400"
   height="128"
   viewBox="0 0 2400 128"
   sodipodi:docname="okraj-dolni.svg"
   inkscape:version="1.3.1 (91b66b0783, 2023-11-16)"
   xmlns:inkscape="http://www.inkscape.org/namespaces/inkscape"
   xmlns:sodipodi="http://sodipodi.sourceforge.net/DTD/sodipodi-0.dtd"
   xmlns="http://www.w3.org/2000/svg"
   xmlns:svg="http://www.w3.org/2000/svg">
  <defs
     id="defs1" />
  <sodipodi:namedview
     id="namedview1"
     pagecolor="#ffffff"
     bordercolor="#000000"
     borderopacity="0.25"
     inkscape:showpageshadow="2"
     inkscape:pageopacity="0.0"
     inkscape:pagecheckerboard="0"
     inkscape:deskcolor="#d1d1d1"
     inkscape:zoom="0.34916667"
     inkscape:cx="1197.136"
     inkscape:cy="64.43914"
     inkscape:window-width="1366"
     inkscape:window-height="715"
     inkscape:window-x="-8"
     inkscape:window-y="-8"
     inkscape:window-maximized="1"
     inkscape:current-layer="g1" />
  <g
     inkscape:groupmode="layer"
     inkscape:label="Image"
     id="g1">
    <path
       style="fill:#f4d0d0;fill-opacity:1"
       d="m 7.8513974e-8,76.32794 v -58 L 4.3333331,18.35124 c 2.383334,0.0128 9.7333329,0.94399 16.3333329,2.0693 6.6,1.1253 15.6,2.62079 20,3.3233 4.4,0.70251 18.135036,1.29687 30.522303,1.3208 17.515113,0.0338 23.139105,0.47552 25.296675,1.98675 4.859876,3.40398 15.420326,2.44367 24.828826,-2.25782 l 8.40706,-4.20106 7.86817,4.32555 c 8.10809,4.45745 11.85144,4.77192 24.4922,2.05756 2.64883,-0.56879 7.05612,0.0999 12.55354,1.90458 9.48087,3.11241 23.17445,3.61636 40.73287,1.49907 14.77314,-1.78144 40.22109,-2.24853 55.29836,-1.01499 10.04678,0.82197 14.73499,1.96281 22.66667,5.51576 19.53544,8.75081 28.7734,11.70438 46,14.7072 14.99366,2.6136 23.73765,2.63478 32.12142,0.0778 11.28981,-3.44324 42.90988,-5.39885 57.69733,-3.56842 7.06635,0.8747 15.40697,1.58457 18.53471,1.5775 3.12774,-0.007 9.12774,0.87847 13.33333,1.96789 7.40157,1.91729 46.13823,10.60354 56.97987,12.77708 2.93334,0.58808 8.93334,2.0184 13.33334,3.17849 28.41806,7.49264 37.69568,8.46287 92,9.62118 92.37499,1.97036 114.50337,1.25918 149.33333,-4.79944 3.79288,-0.65977 16.15015,-0.65259 28.66667,0.0167 12.1,0.64698 31.78423,1.58252 43.74273,2.07898 l 21.74273,0.90265 3.8843,-4.71233 c 4.89415,-5.93745 16.08885,-10.62965 44.96357,-18.84624 23.89347,-6.79912 39.66332,-10.22959 51.06849,-11.10909 9.18535,-0.70832 10.98486,-0.48538 13.34862,1.65379 2.40287,2.17457 3.08454,2.24924 5.65747,0.61971 7.28571,-4.61429 11.18521,-5.90566 16.25875,-5.38429 10.7596,1.10569 42.9477,0.37633 52.6666,-1.19339 10.0819,-1.62833 13.4766,-2.47509 35.3334,-8.81327 42.5058,-12.32616 62.3924,-16.64374 76.5905,-16.62857 4.8085,0.005 13.8428,1.24154 20.0761,2.74756 6.2334,1.50602 18.5334,3.63811 27.3334,4.73798 8.8,1.09986 20.2,2.52866 25.3333,3.17509 12.8442,1.61747 45.3953,8.48499 50.6667,10.6895 18.7724,7.85073 20.9829,8.3349 39.3333,8.61509 15.5928,0.23808 18.7064,0.65936 23.2819,3.15014 6.223,3.3876 6.9257,3.44614 11.6684,0.97193 1.9894,-1.03782 6.7894,-2.54048 10.6667,-3.33926 7.6205,-1.56992 9.8391,-1.1538 23.0497,4.32333 4.4,1.82424 18.2,5.81149 30.6666,8.86054 35.9423,8.79062 50.1705,12.47649 76,19.68808 4.4,1.22848 11.6788,4.23037 16.1752,6.67088 20.5488,11.15341 46.1815,18.09079 74.5651,20.18069 11.9515,0.88 13.9779,1.41324 18.6666,4.91222 2.8929,2.15878 5.5829,4.35856 5.9778,4.8884 1.6751,2.24737 19.1161,9.1286 28.1552,11.1084 12.79,2.80137 57.0099,3.87081 93.1268,2.25224 24.5971,-1.10231 28.3762,-0.97887 37.7511,1.23312 12.7317,3.00402 22.9663,3.13645 29.5575,0.38246 2.9205,-1.22025 6.5154,-1.73565 8.7235,-1.25067 2.3742,0.52145 6.1248,-0.14586 10.1952,-1.81393 10.1102,-4.14317 13.309,-4.43388 22.7462,-2.06713 7.4021,1.85639 10.2415,1.96782 17.5933,0.69044 4.8216,-0.83776 15.3665,-2.04468 23.4332,-2.68204 14.0612,-1.111 18.7452,-1.053 37.9633,0.47006 14.8591,1.17761 50.6306,-3.79303 86.0367,-11.95526 4.4,-1.01434 12.2,-2.7861 17.3333,-3.93725 5.1334,-1.15114 11.4334,-2.68778 14,-3.41474 4.5113,-1.27774 25.9484,-6.8213 36.4749,-9.43229 2.8279,-0.70141 9.7918,-3.70199 15.4754,-6.66795 10.2647,-5.3566 10.3673,-5.37862 15.3546,-3.29481 2.7614,1.15381 6.5721,2.09784 8.4681,2.09784 3.116,0 17.8725,-5.08424 41.5604,-14.31935 9.9462,-3.8777 12.0653,-4.53945 29.3333,-9.16021 6.9667,-1.86422 16.8667,-4.81018 22,-6.54659 5.1333,-1.73641 14.7333,-4.66232 21.3333,-6.50202 6.6,-1.8397 16.8,-4.92205 22.6667,-6.84968 5.8667,-1.92763 17.2667,-5.21491 25.3333,-7.30507 8.0667,-2.09016 21.5751,-5.62002 30.0186,-7.84415 20.193,-5.31905 28.1248,-7.01097 66.6481,-14.21665 5.5,-1.02877 11.95,-1.88228 14.3333,-1.89671 L 2400,6.328 v 64 64 H 1200 7.8512358e-8 Z"
       id="path1" />
  </g>
</svg>
