<?xml version="1.0" encoding="UTF-8" standalone="no"?>
<!-- Created with Inkscape (http://www.inkscape.org/) -->

<svg
   version="1.1"
   id="svg1"
   width="204"
   height="9.8000002"
   viewBox="0 0 204 9.8"
   sodipodi:docname="okraj-horni.svg"
   inkscape:version="1.3.1 (91b66b0783, 2023-11-16)"
   xmlns:inkscape="http://www.inkscape.org/namespaces/inkscape"
   xmlns:sodipodi="http://sodipodi.sourceforge.net/DTD/sodipodi-0.dtd"
   xmlns="http://www.w3.org/2000/svg"
   xmlns:svg="http://www.w3.org/2000/svg">
  <defs
     id="defs1" />
  <sodipodi:namedview
     id="namedview1"
     pagecolor="#ffffff"
     bordercolor="#000000"
     borderopacity="0.25"
     inkscape:showpageshadow="2"
     inkscape:pageopacity="0.0"
     inkscape:pagecheckerboard="0"
     inkscape:deskcolor="#d1d1d1"
     inkscape:zoom="4.1046238"
     inkscape:cx="47.507399"
     inkscape:cy="6.4561337"
     inkscape:window-width="1366"
     inkscape:window-height="715"
     inkscape:window-x="-8"
     inkscape:window-y="-8"
     inkscape:window-maximized="1"
     inkscape:current-layer="g1"
     showgrid="false" />
  <g
     inkscape:groupmode="layer"
     inkscape:label="Image"
     id="g1">
    <path
       style="fill:#f4d0d0;fill-opacity:1;stroke-width:0.999603"
       d="m 0,3.7099667 v -3.76000001 h 102 102 v 3.62542601 5.625426 l -0.87931,-0.174925 c -3.54647,-0.705513 -6.94741,-0.956993 -11.75079,-0.868901 -0.35172,0.0064 -1.35893,-0.07549 -2.23824,-0.182094 -0.87931,-0.106602 -3.62445,-0.1805843 -6.10032,-0.1644033 -4.14706,0.0271 -4.66329,-0.03616 -6.55486,-0.803288 -2.13337,-0.8651882 -2.73423,-0.9156499 -9.24763,-0.7766476 -2.44295,0.052135 -4.0392,-0.1528671 -8.15362,-1.0471374 -4.9192,-1.0691917 -5.3927,-1.1139837 -12.31034,-1.1644827 -11.49825,-0.08394 -18.06101,0.115988 -18.60378,0.5667438 -1.22136,1.0142878 -8.29919,2.7922108 -8.86429,2.2266703 -0.23642,-0.2366065 -0.55412,-0.2303728 -1.06308,0.020859 -0.39925,0.1970727 -2.02089,0.419073 -3.60364,0.493334 -1.93072,0.090587 -4.02716,0.4654866 -6.37051,1.1392199 -1.92102,0.55231 -4.00737,1.003636 -4.63637,1.002946 -1.8136,-0.002 -10.295288,-1.506332 -11.60635,-2.0585473 C 91.362354,7.1344857 90.355142,6.913044 89.778624,6.9180727 84.907232,6.9605627 76.707651,5.2538512 72.713099,3.3659477 71.64151,2.8594937 69.699033,2.2849067 68.396484,2.0890887 67.093936,1.8932707 65.311969,1.3591127 64.436558,0.9020707 62.91355,0.10692469 62.548646,0.06222969 55.97599,-0.13421731 c -3.816437,-0.114068 -7.442967,-0.07612 -8.160695,0.08539 -0.710481,0.159879 -1.651501,0.270038 -2.091156,0.244799 -0.983748,-0.05647 -0.795987,-0.0613 -6.215549,0.159819 -4.697871,0.191676 -10.655604,1.24369901 -13.928653,2.45953601 -0.967241,0.3593 -2.246727,0.64439 -2.843301,0.633534 -0.596575,-0.01086 -1.963503,0.328241 -3.037618,0.753551 C 16.225564,5.5777718 2.0950349,9.4699697 0.5752799,9.4699697 0.0427129,9.4699697 0,9.0423057 0,3.7099697 Z"
       id="path1"
       sodipodi:nodetypes="ccccccscssssssssssssssssssssssssssc" />
  </g>
</svg>
