<?xml version="1.0" encoding="UTF-8" standalone="no"?>
<!-- Created with Inkscape (http://www.inkscape.org/) -->

<svg
   version="1.1"
   id="svg1"
   width="70"
   height="370"
   viewBox="0 0 70 370"
   sodipodi:docname="prsa-svisle.svg"
   inkscape:version="1.3.1 (91b66b0783, 2023-11-16)"
   xmlns:inkscape="http://www.inkscape.org/namespaces/inkscape"
   xmlns:sodipodi="http://sodipodi.sourceforge.net/DTD/sodipodi-0.dtd"
   xmlns="http://www.w3.org/2000/svg"
   xmlns:svg="http://www.w3.org/2000/svg">
  <defs
     id="defs1" />
  <sodipodi:namedview
     id="namedview1"
     pagecolor="#ffffff"
     bordercolor="#000000"
     borderopacity="0.25"
     inkscape:showpageshadow="2"
     inkscape:pageopacity="0.0"
     inkscape:pagecheckerboard="0"
     inkscape:deskcolor="#d1d1d1"
     showgrid="false"
     inkscape:zoom="0.8109375"
     inkscape:cx="25.895954"
     inkscape:cy="320"
     inkscape:window-width="1366"
     inkscape:window-height="715"
     inkscape:window-x="-8"
     inkscape:window-y="-8"
     inkscape:window-maximized="1"
     inkscape:current-layer="g1" />
  <g
     inkscape:groupmode="layer"
     inkscape:label="Image"
     id="g1">
    <path
       style="fill:#000000;stroke-width:4.2903"
       d="M 18.552172,138.95252 C 11.99153,138.0964 7.4375571,130.99647 6.4073973,120.01804 5.9729625,115.38822 6.057481,113.50864 7.2150877,102.05356 7.6785643,97.467286 7.935694,92.322354 7.9111195,88.126701 c -0.037325,-6.40082 0.062512,-7.414136 0.6716319,-6.804622 0.5867751,0.58722 0.2742789,17.060497 -0.4428348,23.342341 -1.9073568,16.70876 0.1925908,26.89418 6.4960304,31.5077 2.433285,1.78093 4.271688,2.24758 6.759981,1.71598 5.413945,-1.15662 7.589531,-4.81972 9.490606,-15.97958 1.234004,-7.24394 1.785251,-16.26301 1.566889,-25.636214 -0.136517,-5.859682 -0.09348,-7.174962 0.170882,-5.221762 0.642003,4.743642 0.517018,21.403546 -0.20705,27.600746 -1.137125,9.73231 -2.429876,14.13826 -4.980746,16.97548 -2.41812,2.6895 -5.34981,3.78696 -8.884328,3.32575 z m 30.078042,-2.10353 c -3.069267,-1.51199 -6.841981,-6.67891 -8.301995,-11.36992 -0.970803,-3.11921 -2.041423,-9.28526 -2.785768,-16.04414 -0.676029,-6.13855 -0.80507,-25.148469 -0.175,-25.778549 0.520197,-0.52019 0.895954,5.749473 0.619118,10.330225 -0.406119,6.719674 0.923249,20.101224 2.805803,28.243824 1.326968,5.73951 4.427715,10.95924 7.772527,13.08409 1.880379,1.19459 3.243053,1.30799 5.691523,0.4737 4.688582,-1.59754 7.911774,-7.22023 9.850712,-17.18395 0.708425,-3.6404 0.9179,-15.43703 0.452849,-25.502324 -0.220392,-4.769775 -0.20263,-5.055985 0.150246,-2.424392 0.220049,1.64111 0.416416,8.774412 0.436375,15.851776 0.03603,12.84761 0.03475,12.874 -0.974094,16.72535 -1.243122,4.7461 -3.33037,9.07136 -5.359648,11.10641 -2.709796,2.71751 -7.393577,3.86191 -10.182648,2.4879 z m -30.226165,-5.10656 c -0.262437,-0.3162 -0.356523,-0.90258 -0.21593,-1.34556 0.196024,-0.61759 0.501013,-0.76068 1.4295,-0.67063 1.037358,0.10084 1.180311,0.25013 1.180311,1.23346 0,0.92584 -0.166421,1.13831 -0.964381,1.23106 -0.530408,0.0618 -1.173686,-0.13986 -1.4295,-0.44833 z m 33.567741,-1.11981 c -0.791637,-0.95386 -0.339406,-1.90081 0.907757,-1.90081 0.988942,0 1.113837,0.12527 1.113837,1.11895 0,0.85037 -0.186885,1.14563 -0.778603,1.23019 -0.428214,0.0614 -0.987577,-0.14072 -1.242991,-0.44833 z"
       id="path1" />
    <path
       style="fill:#000000;stroke-width:4.07214"
       d="m 44.778347,71.672647 c -4.35716,-1.83649 -8.338788,-5.55859 -10.081598,-9.42447 -0.652683,-1.44773 -0.900582,-2.8641 -1.016284,-5.80651 -0.267743,-6.80914 0.90959,-10.0906 6.663433,-18.57184 1.952387,-2.87787 3.718807,-6.01846 4.439047,-7.89242 1.056357,-2.74845 1.542726,-4.40736 3.19452,-10.89582 0.322839,-1.26823 0.361891,-0.8716 0.210611,2.14039 -0.326382,6.49918 -2.072882,11.44039 -6.300927,17.82661 -4.54465,6.86436 -5.772514,9.80404 -6.190576,14.82104 -0.558938,6.70758 2.918653,12.98006 8.922753,16.09386 2.232571,1.1578 2.687074,1.24856 6.297897,1.25724 2.140422,0.004 4.417054,-0.11687 5.059181,-0.2708 0.828799,-0.19913 0.659446,-0.0419 -0.583749,0.54106 -1.214679,0.56962 -2.764791,0.86839 -5.059181,0.97512 -2.84445,0.13234 -3.622787,0.0204 -5.555147,-0.79333 z m -21.597033,-5.13224 c -5.521504,-1.48649 -8.633823,-4.44042 -11.351133,-10.77345 -0.710263,-1.65533 -1.53167,-3.20913 -1.825349,-3.45285 -0.5741143,-0.47648 -0.7419883,-2.92249 -0.2152943,-3.13689 0.175265,-0.0713 1.3674293,-1.45599 2.6492443,-3.07699 2.44918,-3.09723 5.451646,-8.55446 6.514747,-11.84113 0.8501,-2.62812 1.798098,-9.13368 1.800912,-12.35862 0.0022,-2.46376 -0.8675,-9.40989 -1.381954,-11.038059 -0.180274,-0.57063 -0.150873,-0.6032 0.133648,-0.14782 0.200675,0.32089 0.781484,2.072309 1.290701,3.891669 0.792096,2.83001 0.926244,4.17935 0.92857,9.34002 0.0023,5.07352 -0.138127,6.54767 -0.883561,9.27641 -0.960919,3.5176 -2.45903,6.74493 -4.693824,10.11173 -1.390273,2.09455 -1.423404,2.23125 -1.423404,5.87463 0,3.00394 -0.147045,3.97331 -0.755252,4.9786 l -0.755255,1.2484 0.916728,1.95723 c 1.052676,2.24754 4.103449,5.46558 6.557671,6.9173 0.925674,0.54754 2.939616,1.39479 4.475431,1.8828 2.349401,0.7465 2.576304,0.88821 1.430298,0.89326 -0.749147,0.003 -2.284975,-0.24229 -3.412945,-0.54607 z m -9.467667,-13.8539 c 0.573394,-1.64482 0.540287,-3.9194 -0.06919,-4.75288 -0.462285,-0.63224 -0.561283,-0.60984 -1.43992,0.32536 -1.130943,1.20385 -1.245415,3.14549 -0.272956,4.62966 0.874622,1.33485 1.261541,1.29095 1.782046,-0.20198 z m 31.690682,13.26499 c -2.601104,-1.28753 -3.47415,-3.96968 -1.827984,-5.61585 1.37967,-1.37968 6.21573,-0.14048 7.923137,2.03001 0.972732,1.23662 1.002988,2.89891 0.06817,3.7449 -1.014822,0.91839 -4.15008,0.83748 -6.163317,-0.15922 z m 5.630453,-1.59681 c 0.150017,-1.25898 -2.060165,-3.2922 -3.967795,-3.65006 -1.525883,-0.28627 -3.469511,0.46516 -3.651821,1.41181 -0.119884,0.62247 1.478451,2.4612 2.714366,3.12268 0.603267,0.32292 0.657467,0.22519 0.450391,-0.80999 -0.211792,-1.05908 -0.137801,-1.17701 0.738515,-1.17701 1.22088,0 1.88064,0.76231 1.597341,1.84566 -0.196236,0.75041 -0.108563,0.80327 0.891913,0.5378 0.798224,-0.21175 1.142532,-0.57124 1.22709,-1.28089 z"
       id="path1-9" />
    <path
       style="fill:#000000;stroke-width:3.05859"
       d="M 17.803251,364.19053 C 8.3366501,363.4608 2.0710942,354.81306 4.072273,345.239 c 0.3450915,-1.65096 1.2649938,-3.89931 3.1443571,-7.68511 3.1650099,-6.37564 3.7326199,-8.29178 3.4843479,-11.76258 -0.09794,-1.36911 -0.253771,-2.83935 -0.346339,-3.26722 -0.09255,-0.42783 0.05187,-0.14772 0.320941,0.62233 0.864947,2.47566 0.915145,5.24956 0.141612,7.82624 -0.626895,2.08825 -1.1154307,3.11762 -3.9648214,8.35427 -4.028511,7.40359 -3.576454,13.9658 1.3269307,19.26206 2.0784437,2.24495 3.2837827,3.08294 5.7343967,3.98663 9.021203,3.32673 18.798695,-3.27881 19.904275,-13.44707 l 0.236827,-2.17815 0.04224,2.34616 c 0.07567,4.20164 -1.291429,7.70099 -4.157788,10.64268 -3.202263,3.28639 -7.071189,4.64168 -12.136024,4.25129 z m 28.9347,-0.3689 c -3.677006,-1.40393 -6.390331,-3.8704 -8.181308,-7.43709 -1.211618,-2.4129 -1.81807,-5.71999 -1.444711,-7.87832 l 0.269126,-1.55582 0.173789,2.67939 c 0.15085,2.32579 0.344514,3.02391 1.467381,5.28977 2.367243,4.77694 6.45777,7.91353 11.4313,8.76544 8.14841,1.39575 16.669068,-5.96055 16.669068,-14.39129 0,-3.35542 -0.550397,-5.07552 -3.43812,-10.74471 -1.481952,-2.90936 -2.952312,-6.05989 -3.267464,-7.00117 -0.69459,-2.07452 -0.707739,-5.47871 -0.02875,-7.46789 l 0.477884,-1.40026 -0.198717,1.24467 c -0.308144,1.92994 -0.202785,5.45368 0.2093,7.00117 0.205078,0.77013 1.554798,3.78064 2.999346,6.69 1.444548,2.90936 2.852837,6.19903 3.129527,7.31037 0.689119,2.76781 0.45725,7.57164 -0.484071,10.02913 -1.457707,3.80555 -4.545912,6.91865 -8.486017,8.55442 -1.661935,0.68995 -2.525529,0.82948 -5.693076,0.91984 -3.299618,0.0942 -3.951527,0.0245 -5.604401,-0.60765 z m 9.506348,-14.67812 c -0.479474,-0.57774 -0.300691,-1.5367 0.308349,-1.654 0.822901,-0.15843 1.646397,0.67764 1.407805,1.42938 -0.245299,0.7729 -1.161583,0.89282 -1.716154,0.22449 z m -41.487693,-0.0538 c -0.480514,-0.48053 -0.208627,-1.63451 0.433081,-1.83818 0.828777,-0.26304 1.295659,0.19544 1.161883,1.14091 -0.102555,0.72481 -1.121821,1.17041 -1.594964,0.69727 z"
       id="path1-2" />
    <path
       style="fill:#000000;stroke-width:4.33459"
       d="m 19.322105,311.57288 c -2.795732,-0.96198 -4.110874,-1.79794 -6.420357,-4.0811 -3.9308037,-3.8859 -5.5257771,-7.53115 -5.8173215,-13.29525 -0.1018645,-2.01379 -0.035549,-4.32049 0.1472892,-5.12599 0.2782376,-1.22555 0.3368407,-0.86708 0.3592937,2.19686 0.016033,2.16529 0.2794071,4.63389 0.6450084,6.04137 1.4457645,5.56578 5.0777322,10.28612 9.6441282,12.53414 2.254932,1.11012 2.694411,1.19621 6.106624,1.19621 3.436834,0 3.8408,-0.0806 6.189064,-1.23679 3.282766,-1.6161 6.251101,-4.63037 8.027881,-8.15217 1.521489,-3.01579 2.555886,-7.31872 2.37763,-9.89065 -0.06498,-0.93762 0.0286,-1.61381 0.207975,-1.50263 0.437345,0.27092 -0.02081,6.76465 -0.639881,9.06565 -0.839904,3.12276 -2.59507,6.10621 -4.864134,8.26809 -2.487347,2.36985 -2.992386,2.67071 -6.465535,3.85201 -3.218771,1.09479 -6.561446,1.14064 -9.497679,0.13004 z m 31.089528,-1.26826 c -1.945496,-0.53466 -2.983481,-1.31185 -3.761503,-2.81634 -0.799428,-1.54594 -0.656334,-2.54471 0.173209,-1.20901 1.161135,1.86955 2.384294,2.72519 4.504346,3.15094 3.134311,0.62946 5.676578,-0.23883 8.257939,-2.82008 1.490516,-1.49054 1.930792,-2.16118 1.726728,-2.63031 -1.927623,-4.43154 -2.184113,-8.4266 -0.706904,-11.01062 0.501021,-0.87642 0.910946,-1.72486 0.910946,-1.88545 0,-0.16082 -0.582888,-1.15816 -1.295303,-2.2168 -2.191297,-3.25622 -3.718364,-6.87019 -5.483655,-12.97756 -1.920166,-6.64318 -2.456302,-7.97044 -4.363103,-10.80122 -0.976642,-1.44988 -1.098882,-1.75745 -0.436545,-1.09842 1.84694,1.83777 3.569109,5.3929 5.52042,11.396 1.093078,3.36277 2.473195,7.07612 3.066935,8.25183 1.306871,2.58788 6.652409,10.72675 7.505559,11.4276 0.6884,0.56553 0.851269,3.15074 0.222972,3.53903 -0.213783,0.1322 -0.553488,0.67736 -0.754865,1.21154 -0.877011,2.32668 -3.824116,6.7656 -5.480619,8.25492 -2.890429,2.59875 -5.809338,3.2775 -9.606557,2.23395 z m 13.163125,-9.6946 c 0.609905,-1.18086 1.022991,-2.54075 1.003034,-3.30195 -0.0338,-1.28697 -1.601792,-4.85888 -2.330808,-5.30943 -0.216425,-0.13393 -0.714296,0.51578 -1.149614,1.49991 -0.625831,1.41479 -0.73354,2.21545 -0.582381,4.32911 0.192845,2.69641 1.194545,5.67375 1.720223,5.11295 0.166404,-0.17772 0.769214,-1.2263 1.339546,-2.33059 z m -39.020067,4.61569 c -2.771236,-1.59092 -1.297669,-6.08624 1.995074,-6.08624 1.634299,0 3.478355,1.63194 3.478355,3.07826 0,2.28971 -3.435698,4.17784 -5.473429,3.00798 z m 3.251855,-0.7644 c 2.546347,-1.31676 1.113556,-5.49213 -1.646892,-4.79933 -2.174669,0.5458 -3.067078,3.18019 -1.554632,4.58922 0.949246,0.88435 1.790874,0.93961 3.201524,0.21023 z m -1.998977,-0.57803 c -0.276461,-0.44732 0.462048,-1.45107 1.061638,-1.44294 0.227044,0.004 0.649399,0.15518 0.938514,0.33811 0.435653,0.27569 0.44365,0.43129 0.04673,0.90974 -0.544609,0.65622 -1.69411,0.7657 -2.046858,0.19506 z"
       id="path1-6" />
    <path
       style="fill:#000000;stroke-width:3.38776"
       d="m 15.398018,250.33966 c -1.842018,-0.5897 -4.90405,-2.72348 -6.1119731,-4.25909 -1.3553147,-1.72302 -2.5339484,-4.79494 -2.9287236,-7.63327 -0.4739417,-3.40751 -0.1205701,-7.21411 1.6456083,-17.72668 0.7022565,-4.17991 1.4323361,-9.50781 1.6223996,-11.83967 0.1900537,-2.3319 0.4442718,-4.33851 0.5649028,-4.45915 0.480499,-0.48051 -0.3196018,7.87922 -1.5602379,16.30177 -1.5510862,10.53018 -1.7964617,17.859 -0.6936206,20.71665 0.6945397,1.79964 3.0688935,5.45176 3.5443715,5.45176 0.165255,0 0.758663,-0.43055 1.318682,-0.9568 1.26289,-1.18674 2.85922,-1.8791 5.42714,-2.3538 2.776003,-0.51318 5.413667,0.28425 7.48739,2.26361 l 1.551334,1.48071 1.756396,-1.94324 c 4.991983,-5.52307 5.899057,-10.29441 4.031512,-21.20611 -1.16881,-6.82909 -1.483274,-12.36252 -0.91356,-16.075 0.470822,-3.06798 1.027682,-4.82339 1.530122,-4.82339 0.422344,0 0.414133,0.10098 -0.266317,3.27105 -0.89473,4.16861 -0.755581,9.79296 0.386669,15.62835 1.174689,6.00116 1.545861,11.74823 0.945114,14.63345 -1.049641,5.04112 -5.487991,11.00975 -9.650634,12.978 -2.309921,1.09223 -7.137963,1.3668 -9.686575,0.55085 z m 2.227865,-1.07564 c 0.739747,-0.89132 2.784981,-1.08741 3.877285,-0.3717 0.804059,0.52683 1.1775,0.56239 2.317705,0.22089 2.218952,-0.66483 2.399804,-1.21924 0.843507,-2.58569 -1.806352,-1.58601 -3.356505,-2.18122 -5.655905,-2.17163 -2.697366,0.0103 -6.462915,1.80889 -6.462915,3.08544 0,0.36477 3.682492,2.32923 4.407766,2.35139 0.125438,0.003 0.428095,-0.2341 0.672557,-0.52864 z m 31.934954,-0.33439 c -5.050759,-1.80416 -9.505116,-6.96898 -11.017251,-12.77448 -0.821652,-3.15452 -0.69392,-7.69419 0.373804,-13.28555 1.248256,-6.5368 1.546266,-13.36795 0.753793,-17.27891 -0.326582,-1.6117 -0.59376,-3.23531 -0.59376,-3.60804 0,-0.60411 0.05954,-0.61814 0.548404,-0.12942 0.815103,0.81513 1.632294,5.72448 1.632294,9.80618 0,2.33191 -0.382654,5.83176 -1.090356,9.97266 -2.067161,12.09553 -1.283921,16.50284 3.989894,22.45107 l 1.537747,1.7344 1.394147,-1.25953 c 2.217311,-2.00319 3.263959,-2.39189 6.41696,-2.38302 3.146452,0.0103 4.998843,0.65916 6.801745,2.38779 l 1.059353,1.01573 1.379023,-1.55397 c 3.735847,-4.20977 4.047977,-10.32799 1.346362,-26.3904 -0.514911,-3.06139 -0.766488,-6.47391 -0.844007,-11.44867 l -0.110443,-7.0872 0.279628,5.99696 c 0.254623,5.46123 0.9334,10.79326 2.382711,18.71765 1.506575,8.23749 1.324019,14.39054 -0.539639,18.18892 -1.426969,2.90837 -3.284322,4.72021 -6.365534,6.20954 -2.205692,1.06613 -2.888293,1.22271 -5.270024,1.20882 -1.504872,-0.0103 -3.334047,-0.22935 -4.064836,-0.49058 z m 7.917285,-1.14525 c 3.365494,-1.34271 3.616282,-1.6807 2.220134,-2.99235 -1.303327,-1.2244 -3.33528,-1.89796 -5.725756,-1.89796 -2.384128,0 -3.899532,0.57715 -5.536235,2.10848 -1.332336,1.24657 -1.259982,1.81773 0.313537,2.4752 1.186424,0.49574 1.435116,0.49069 2.579485,-0.0525 1.419621,-0.67365 3.385601,-0.4896 4.111375,0.38489 0.53834,0.64868 0.340352,0.6512 2.037471,-0.0272 z"
       id="path1-22" />
    <path
       style="fill:#000000;stroke-width:2.519"
       d="m 10.280899,184.9139 c -1.8551742,-0.51489 -2.8941957,-1.16121 -4.49502,-2.79619 -1.5587238,-1.59201 -3.038031,-4.29305 -3.5599832,-6.50013 -1.0802548,-4.56787 -0.3499844,-10.42565 1.9546089,-15.6787 0.9375421,-2.13702 3.0190575,-5.48947 3.4083681,-5.48947 0.5341759,0 0.4252171,0.29746 -0.942491,2.57312 -2.4831739,4.13162 -3.7411153,8.64564 -3.7618166,13.49901 -0.025314,5.93233 2.0713329,10.47891 5.752952,12.47538 4.8747468,2.64347 11.1204888,0.74796 16.6718468,-5.05971 3.934559,-4.11623 6.466978,-8.97154 7.820706,-14.99439 l 0.411178,-1.82936 -0.137463,1.94019 c -0.592791,8.36667 -6.303871,17.20416 -13.332576,20.63123 -3.138566,1.5303 -6.971103,2.01142 -9.79031,1.22902 z m 39.461662,-1.267 c -2.409053,-0.82433 -3.955533,-1.8056 -5.743868,-3.64454 -2.981149,-3.06556 -5.379249,-9.0677 -5.876259,-14.70753 -0.08867,-1.00615 -0.222731,-2.22311 -0.297927,-2.7044 -0.09076,-0.58094 -0.04325,-0.81731 0.141289,-0.70326 0.152903,0.0944 0.278003,0.61988 0.278003,1.16751 0,3.19019 1.826808,9.46192 3.719667,12.77022 2.111097,3.68973 5.651889,6.38712 9.407054,7.16635 3.440334,0.7139 7.655578,-0.72202 10.521918,-3.58431 1.914051,-1.91132 3.075123,-3.83981 4.128469,-6.85712 0.718839,-2.05913 0.799593,-2.60533 0.802179,-5.42564 0.0036,-3.82079 -0.4453,-5.77041 -2.168546,-9.4202 -0.894661,-1.89489 -1.522256,-2.85849 -2.255293,-3.46272 -0.999253,-0.82366 -1.004496,-0.8372 -0.324168,-0.8372 1.159897,0 1.541734,0.28001 2.586859,1.89703 1.331476,2.06004 2.540139,5.25574 3.031405,8.01503 0.460188,2.58474 0.326323,6.61117 -0.296038,8.90409 -1.028522,3.78935 -3.99872,8.04336 -6.92876,9.92354 -3.27269,2.10009 -7.322765,2.66767 -10.725984,1.50315 z m 4.757254,-7.13291 c -1.283179,-0.89878 -0.353278,-3.37944 1.199149,-3.19893 1.441298,0.16752 1.383719,2.28319 -0.08846,3.2508 -0.454001,0.29839 -0.621786,0.29054 -1.110673,-0.052 z m -40.306396,-1.29745 c -0.454973,-0.54822 -0.379258,-1.90187 0.138369,-2.47387 1.015282,-1.12185 2.221158,-0.64661 2.221158,0.87542 0,1.62583 -1.495809,2.63917 -2.359532,1.59845 z"
       id="path1-1" />
  </g>
</svg>
